<svg width="1600" height="120" viewBox="0 0 1600 120" xmlns="http://www.w3.org/2000/svg" role="img" aria-label="Sparkling Pokémon themed divider">
  <defs>
    <linearGradient id="line" x1="0" y1="0" x2="1" y2="0">
      <stop offset="0%" stop-color="#ffffff"/>
      <stop offset="50%" stop-color="#1a1a1a"/>
      <stop offset="100%" stop-color="#ffffff"/>
    </linearGradient>
  </defs>
  <rect width="1600" height="120" fill="#ffffff"/>
  <rect y="56" width="1600" height="8" fill="url(#line)"/>
  <g fill="#111111">
    <circle cx="800" cy="60" r="22" fill="#ffffff" stroke="#111111" stroke-width="4"/>
    <line x1="760" y1="60" x2="840" y2="60" stroke="#111111" stroke-width="4"/>
    <circle cx="800" cy="60" r="7"/>
  </g>
  <g fill="#ffffff" stroke="#111111" stroke-width="2" opacity="0.9">
    <path d="M220 36 l4 12 12 4-12 4-4 12-4-12-12-4 12-4z"/>
    <path d="M1380 36 l4 12 12 4-12 4-4 12-4-12-12-4 12-4z"/>
    <path d="M320 84 l3 9 9 3-9 3-3 9-3-9-9-3 9-3z"/>
    <path d="M1280 84 l3 9 9 3-9 3-3 9-3-9-9-3 9-3z"/>
  </g>
</svg>
